<svg width="42" height="56" viewBox="0 0 42 56" fill="none" xmlns="http://www.w3.org/2000/svg">
<path fill-rule="evenodd" clip-rule="evenodd" d="M21.0001 2.94737C11.3587 2.94737 3.54267 10.2051 3.54267 19.1579H0.368652C0.368652 8.57728 9.60571 0 21.0001 0C32.3945 0 41.6315 8.57728 41.6315 19.1579C41.6315 25.7912 37.9996 31.6362 32.4891 35.0727C28.7282 37.418 25.7611 40.5374 25.7611 44.0798V44.2105C25.7611 50.7217 20.0768 56 13.0649 56C6.05295 56 0.368652 50.7217 0.368652 44.2105V41.2632H3.54267V44.2105C3.54267 49.0939 7.80589 53.0526 13.0649 53.0526C18.3239 53.0526 22.5871 49.0939 22.5871 44.2105V44.0798C22.5871 38.9847 26.7581 35.0962 30.7195 32.6259C35.3896 29.7135 38.4574 24.7681 38.4574 19.1579C38.4574 10.2051 30.6415 2.94737 21.0001 2.94737ZM13.7627 17.7129C14.3274 15.2005 16.6563 13.2632 19.5265 13.2632C22.8332 13.2632 25.4213 15.8343 25.4213 18.894H28.3687C28.3687 14.1061 24.3588 10.3158 19.5265 10.3158C14.6943 10.3158 10.6844 14.1061 10.6844 18.894C10.6844 21.3098 11.6257 23.2419 13.6595 24.3582C14.7636 24.9642 15.5024 25.4793 15.9526 25.8926C16.0629 25.9939 16.1461 26.0799 16.2084 26.1507C15.9362 26.2792 15.4934 26.4254 14.8286 26.5525L15.3824 29.4475C16.3732 29.2579 17.2917 28.9759 17.9892 28.5286C18.7169 28.062 19.4128 27.2539 19.3183 26.0988C19.238 25.1163 18.5977 24.3198 17.9457 23.7213C17.2494 23.082 16.2816 22.4352 15.0778 21.7744C14.6039 21.5143 14.2325 21.1683 13.9848 20.6779C15.0056 20.7453 16.264 20.9019 17.5033 21.2409C18.8932 21.6212 20.1518 22.2019 21.0447 23.0433C21.8822 23.8324 22.4581 24.902 22.4736 26.4727C22.2831 28.4795 21.8077 29.7753 21.2649 30.6149C20.7294 31.4431 20.0846 31.897 19.4157 32.1602C18.7204 32.4339 17.9529 32.518 17.1806 32.518C16.797 32.518 16.4299 32.4977 16.0747 32.475L15.9396 32.4663C15.6447 32.447 15.3229 32.4261 15.0521 32.4261C13.6527 32.4261 12.9439 33.5097 12.6166 34.1463C12.3899 34.5871 12.1662 35.1889 11.9742 35.7057C11.8929 35.9244 11.8171 36.128 11.7493 36.2974C11.4699 36.9963 11.1988 37.5066 10.8725 37.8426C10.601 38.1223 10.2622 38.3158 9.66952 38.3158C8.88596 38.3158 8.47937 38.1392 8.27276 37.9979C8.06954 37.8589 7.94221 37.6741 7.85777 37.4429C7.76758 37.1964 7.73707 36.9211 7.73707 36.6835C7.73707 36.5699 7.744 36.4778 7.75019 36.4196C7.75314 36.3909 7.75579 36.3714 7.75712 36.3629C7.75756 36.3599 7.75771 36.3583 7.75771 36.3583L7.75712 36.3629L7.75608 36.3679L7.75564 36.3705C7.7555 36.3713 7.75505 36.3733 6.30539 36.1084C4.85573 35.8434 4.85558 35.8441 4.85543 35.845L4.85514 35.8466L4.85455 35.8502L4.85307 35.8583L4.84968 35.8789C4.84703 35.8945 4.84408 35.9137 4.84069 35.9365C4.83406 35.9819 4.82625 36.0416 4.81874 36.1135C4.80371 36.2565 4.78971 36.452 4.78971 36.6835C4.78971 37.1363 4.8432 37.7811 5.0896 38.4549C5.34145 39.144 5.80286 39.8795 6.60897 40.4307C7.41139 40.9796 8.43472 41.2632 9.66952 41.2632C11.0953 41.2632 12.1863 40.7204 12.9871 39.8959C13.7332 39.1275 14.1768 38.1653 14.4861 37.3916C14.6274 37.0381 14.7359 36.7435 14.8301 36.4872C14.9764 36.0893 15.0888 35.7839 15.2378 35.4937C15.261 35.4489 15.2815 35.4115 15.2994 35.3805C15.4216 35.3864 15.5654 35.3957 15.7414 35.407L15.8871 35.4165C16.2535 35.4397 16.6984 35.4654 17.1806 35.4654C18.1397 35.4654 19.3192 35.3656 20.4949 34.9029C21.6971 34.43 22.8475 33.5956 23.74 32.215C24.6189 30.8556 25.1995 29.0422 25.4152 26.671C25.4192 26.6267 25.4213 26.5822 25.4213 26.5375C25.4213 24.0944 24.4877 22.2377 23.0659 20.8982C21.688 19.5999 19.9188 18.8461 18.281 18.3981C16.6302 17.9464 15.0025 17.7757 13.8036 17.715C13.7899 17.7143 13.7764 17.7137 13.7627 17.7129ZM15.3889 35.2493C15.3889 35.2501 15.3845 35.2557 15.3755 35.2641C15.3843 35.2529 15.3889 35.2488 15.3889 35.2493Z" fill="#333333"/>
</svg>
