<svg width="10" height="19" viewBox="0 0 10 19" fill="none" xmlns="http://www.w3.org/2000/svg">
<path d="M9.5 3.11621H6.5C5.9477 3.11621 5.5 3.56393 5.5 4.11621V7.11621H9.5C9.6137 7.11369 9.7216 7.16661 9.7892 7.25811C9.8568 7.34961 9.8758 7.46821 9.84 7.57621L9.1 9.77621C9.0318 9.97811 8.8431 10.1146 8.63 10.1162H5.5V17.6162C5.5 17.8923 5.2761 18.1162 5 18.1162H2.5C2.22386 18.1162 2 17.8923 2 17.6162V10.1162H0.5C0.22386 10.1162 0 9.89231 0 9.61621V7.61621C0 7.34011 0.22386 7.11621 0.5 7.11621H2V4.11621C2 1.90707 3.7909 0.116211 6 0.116211H9.5C9.7761 0.116211 10 0.340071 10 0.616211V2.61621C10 2.89235 9.7761 3.11621 9.5 3.11621Z" fill="black"/>
</svg>
