<svg width="64" height="56" viewBox="0 0 64 56" fill="none" xmlns="http://www.w3.org/2000/svg">
<path fill-rule="evenodd" clip-rule="evenodd" d="M11.2267 8.18764C8.83028 11.2373 7.37824 15.4039 7.37824 19.7538C7.37824 22.2779 7.81233 24.6929 8.57652 26.9924H22.8327L28.3939 17.1057L31.8689 29.2681L36.1212 23.8008H46.7727V27.0837H37.7269L30.4891 36.3893L27.3985 25.5716L24.7525 30.2753H0.8125V26.9924H5.13911C4.47344 24.6965 4.09537 22.2795 4.09537 19.7538C4.09537 14.7059 5.77165 9.81643 8.64546 6.15932C11.5271 2.49208 15.6775 0 20.5609 0C26.3119 0 30.6851 3.22274 33.6412 7.77022C36.5971 3.22296 40.9704 0 46.7215 0C51.6054 0 55.7557 2.49252 58.6373 6.15981C61.5109 9.81726 63.187 14.7068 63.187 19.7538C63.187 30.5586 55.7288 39.5814 48.6728 45.7402C45.1043 48.8548 41.5437 51.3203 38.8787 53.006C37.5445 53.85 36.4305 54.5014 35.6465 54.9434C35.2544 55.1645 34.9445 55.3336 34.7304 55.4483C34.6236 55.5058 34.5405 55.5496 34.4831 55.5796L34.4166 55.6143L34.3981 55.6238L34.3926 55.6267L34.3908 55.6276C34.3908 55.6276 34.3897 55.6282 33.6412 54.1673C32.9291 55.6463 32.9286 55.6461 32.9286 55.6461L32.9188 55.6413L32.896 55.6302L32.8131 55.5895C32.7418 55.5542 32.6386 55.5025 32.506 55.435C32.2407 55.2998 31.8574 55.1003 31.3754 54.8388C30.4115 54.3159 29.0504 53.5434 27.4461 52.5371C24.2433 50.528 20.0421 47.5693 16.0913 43.7838C13.9839 41.7647 11.937 39.5001 10.1483 37.0079C9.61971 36.2714 9.78826 35.2459 10.5247 34.7173C11.2612 34.1888 12.2868 34.3574 12.8153 35.0939C14.4641 37.3911 16.3703 39.5047 18.3624 41.4134C22.1032 44.9975 26.1091 47.823 29.1906 49.756C30.7285 50.7207 32.0288 51.4585 32.9408 51.9532C33.1996 52.0937 33.4271 52.2145 33.6195 52.3151C33.7435 52.2469 33.8818 52.1697 34.034 52.0839C34.7759 51.6655 35.8419 51.0425 37.1238 50.2317C39.6909 48.6078 43.1064 46.2413 46.514 43.2669C53.4101 37.2478 59.9041 29.0637 59.9041 19.7538C59.9041 15.4045 58.4523 11.2379 56.056 8.18813C53.6675 5.14836 50.4058 3.28287 46.7215 3.28287C41.6284 3.28287 37.6781 6.59988 35.1145 11.8213L33.6412 14.8223L32.1678 11.8213C29.6041 6.59955 25.6538 3.28287 20.5609 3.28287C16.8769 3.28287 13.6152 5.14803 11.2267 8.18764ZM33.6412 54.1673L32.9286 55.6461L33.664 56L34.3908 55.6276L33.6412 54.1673Z" fill="#333333"/>
</svg>
