<svg width="18" height="19" viewBox="0 0 18 19" fill="none" xmlns="http://www.w3.org/2000/svg">
<path fill-rule="evenodd" clip-rule="evenodd" d="M13 0.116211H5C2.23858 0.116211 0 2.35479 0 5.11621V13.1162C0 15.8776 2.23858 18.1162 5 18.1162H13C15.7614 18.1162 18 15.8776 18 13.1162V5.11621C18 2.35479 15.7614 0.116211 13 0.116211ZM16.25 13.1162C16.2445 14.9088 14.7926 16.3607 13 16.3662H5C3.20735 16.3607 1.75549 14.9088 1.75 13.1162V5.11621C1.75549 3.32356 3.20735 1.8717 5 1.86621H13C14.7926 1.8717 16.2445 3.32356 16.25 5.11621V13.1162ZM13.75 5.36621C14.3023 5.36621 14.75 4.91849 14.75 4.36621C14.75 3.81393 14.3023 3.36621 13.75 3.36621C13.1977 3.36621 12.75 3.81393 12.75 4.36621C12.75 4.91849 13.1977 5.36621 13.75 5.36621ZM9 4.61621C6.51472 4.61621 4.5 6.63093 4.5 9.11621C4.5 11.6015 6.51472 13.6162 9 13.6162C11.4853 13.6162 13.5 11.6015 13.5 9.11621C13.5027 7.92191 13.0294 6.77578 12.1849 5.93129C11.3404 5.0868 10.1943 4.61355 9 4.61621ZM6.25 9.11621C6.25 10.635 7.4812 11.8662 9 11.8662C10.5188 11.8662 11.75 10.635 11.75 9.11621C11.75 7.59741 10.5188 6.36621 9 6.36621C7.4812 6.36621 6.25 7.59741 6.25 9.11621Z" fill="black"/>
</svg>
