<svg width="18" height="19" viewBox="0 0 18 19" fill="none" xmlns="http://www.w3.org/2000/svg">
<path fill-rule="evenodd" clip-rule="evenodd" d="M2 0.116211H16C17.1046 0.116211 18 1.01164 18 2.11621V16.1162C18 17.2208 17.1046 18.1162 16 18.1162H2C0.89543 18.1162 0 17.2208 0 16.1162V2.11621C0 1.01164 0.89543 0.116211 2 0.116211ZM5 15.1162C5.27614 15.1162 5.5 14.8923 5.5 14.6162V7.61621C5.5 7.34011 5.27614 7.11621 5 7.11621H3.5C3.22386 7.11621 3 7.34011 3 7.61621V14.6162C3 14.8923 3.22386 15.1162 3.5 15.1162H5ZM4.25 6.11621C3.42157 6.11621 2.75 5.44464 2.75 4.61621C2.75 3.78778 3.42157 3.11621 4.25 3.11621C5.07843 3.11621 5.75 3.78778 5.75 4.61621C5.75 5.44464 5.07843 6.11621 4.25 6.11621ZM14.5 15.1162C14.7761 15.1162 15 14.8923 15 14.6162V10.0162C15.0325 8.42701 13.8576 7.07073 12.28 6.87621C11.177 6.77546 10.1083 7.29061 9.5 8.21621V7.61621C9.5 7.34011 9.2761 7.11621 9 7.11621H7.5C7.2239 7.11621 7 7.34011 7 7.61621V14.6162C7 14.8923 7.2239 15.1162 7.5 15.1162H9C9.2761 15.1162 9.5 14.8923 9.5 14.6162V10.8662C9.5 10.0378 10.1716 9.36621 11 9.36621C11.8284 9.36621 12.5 10.0378 12.5 10.8662V14.6162C12.5 14.8923 12.7239 15.1162 13 15.1162H14.5Z" fill="black"/>
</svg>
