<svg width="131" height="32" viewBox="0 0 131 32" fill="none" xmlns="http://www.w3.org/2000/svg">
<path d="M15.7929 4.71143V4.71247C15.776 4.74155 12.2955 10.7454 7.95067 18.0757C3.59532 25.4239 0 31.3068 0 31.3068L12.3315 31.2527L12.3323 31.2526L12.3297 31.2621C18.3172 31.1462 23.7182 27.2096 25.3119 21.2615C25.8102 19.4022 25.8853 17.5305 25.5964 15.7417C24.8043 10.4745 20.9149 6.19069 15.7929 4.71143Z" fill="black"/>
<path d="M22.6078 0.925537V0.926581C22.591 0.95566 19.1104 6.95951 14.7656 14.2898C10.4103 21.638 6.81494 27.5209 6.81494 27.5209L19.1464 27.4668L19.1472 27.4667L19.1446 27.4763C25.1321 27.3603 30.5331 23.4237 32.1269 17.4756C32.6251 15.6163 32.7003 13.7446 32.4113 11.9558C31.6192 6.68857 27.7299 2.4048 22.6078 0.925537Z" fill="#10F2C5"/>
<path d="M48.6481 25.1162H42.1855V6.88586H48.7015C50.5352 6.88586 52.1137 7.25082 53.4371 7.98075C54.7605 8.70474 55.7782 9.74622 56.4903 11.1052C57.2084 12.4642 57.5674 14.0902 57.5674 15.9832C57.5674 17.8822 57.2084 19.5142 56.4903 20.8791C55.7782 22.244 54.7545 23.2914 53.4193 24.0213C52.09 24.7512 50.4996 25.1162 48.6481 25.1162ZM46.0399 21.8137H48.4878C49.6272 21.8137 50.5856 21.612 51.363 21.2084C52.1464 20.799 52.7339 20.167 53.1255 19.3124C53.5231 18.4519 53.7219 17.3422 53.7219 15.9832C53.7219 14.6361 53.5231 13.5353 53.1255 12.6808C52.7339 11.8262 52.1493 11.1972 51.3719 10.7936C50.5945 10.3901 49.6361 10.1883 48.4967 10.1883H46.0399V21.8137ZM65.3896 25.3387C64.3511 25.3387 63.4105 25.0717 62.5678 24.5376C61.7311 23.9976 61.0665 23.2053 60.5739 22.1609C60.0873 21.1105 59.844 19.8228 59.844 18.2976C59.844 16.731 60.0962 15.4284 60.6006 14.3899C61.105 13.3454 61.7756 12.565 62.6124 12.0488C63.455 11.5265 64.3778 11.2654 65.3807 11.2654C66.1463 11.2654 66.7842 11.396 67.2946 11.6571C67.8109 11.9123 68.2263 12.2327 68.5408 12.6184C68.8612 12.9982 69.1045 13.3721 69.2707 13.74H69.3864V6.88586H73.1696V25.1162H69.4309V22.9264H69.2707C69.0927 23.3062 68.8405 23.6831 68.5141 24.0569C68.1936 24.4249 67.7753 24.7305 67.259 24.9738C66.7486 25.2171 66.1255 25.3387 65.3896 25.3387ZM66.5913 22.3211C67.2026 22.3211 67.7189 22.155 68.1402 21.8226C68.5675 21.4844 68.8939 21.0126 69.1194 20.4073C69.3508 19.802 69.4665 19.0928 69.4665 18.2798C69.4665 17.4668 69.3538 16.7606 69.1283 16.1613C68.9028 15.5619 68.5764 15.099 68.1491 14.7726C67.7218 14.4462 67.2026 14.283 66.5913 14.283C65.9682 14.283 65.443 14.4522 65.0158 14.7904C64.5885 15.1287 64.2651 15.5975 64.0455 16.1969C63.8259 16.7962 63.7161 17.4906 63.7161 18.2798C63.7161 19.075 63.8259 19.7783 64.0455 20.3895C64.271 20.9948 64.5944 21.4695 65.0158 21.8137C65.443 22.152 65.9682 22.3211 66.5913 22.3211ZM87.6635 15.3423L84.1919 15.556C84.1326 15.2592 84.005 14.9922 83.8091 14.7548C83.6133 14.5115 83.3552 14.3186 83.0347 14.1762C82.7202 14.0279 82.3434 13.9537 81.9042 13.9537C81.3167 13.9537 80.8212 14.0783 80.4177 14.3275C80.0141 14.5709 79.8124 14.8972 79.8124 15.3067C79.8124 15.6331 79.9429 15.9091 80.204 16.1346C80.4651 16.3601 80.9132 16.5411 81.5482 16.6776L84.0228 17.176C85.3521 17.449 86.3431 17.8882 86.9959 18.4935C87.6487 19.0988 87.9751 19.894 87.9751 20.8791C87.9751 21.7752 87.711 22.5615 87.1828 23.238C86.6606 23.9145 85.9426 24.4427 85.0287 24.8225C84.1207 25.1963 83.0733 25.3833 81.8864 25.3833C80.0764 25.3833 78.6344 25.0064 77.5603 24.2528C76.4921 23.4932 75.866 22.4606 75.682 21.155L79.4118 20.9592C79.5245 21.5111 79.7975 21.9324 80.2307 22.2232C80.6639 22.5081 81.2188 22.6505 81.8953 22.6505C82.56 22.6505 83.0941 22.5229 83.4976 22.2677C83.9071 22.0066 84.1148 21.6713 84.1207 21.2618C84.1148 20.9177 83.9694 20.6358 83.6845 20.4162C83.3997 20.1907 82.9605 20.0186 82.3671 19.8999L79.9993 19.4281C78.6641 19.1611 77.6701 18.6982 77.0173 18.0395C76.3704 17.3808 76.047 16.5411 76.047 15.5204C76.047 14.6421 76.2844 13.8854 76.7591 13.2505C77.2398 12.6155 77.9134 12.1259 78.7798 11.7817C79.6521 11.4375 80.6728 11.2654 81.8419 11.2654C83.5688 11.2654 84.9278 11.6304 85.9188 12.3603C86.9158 13.0902 87.4974 14.0842 87.6635 15.3423ZM96.5228 30.5283C95.2944 30.5283 94.241 30.3592 93.3627 30.021C92.4904 29.6886 91.7961 29.2347 91.2798 28.659C90.7635 28.0834 90.4282 27.4365 90.2739 26.7185L93.7811 26.2467C93.8879 26.5197 94.057 26.7749 94.2885 27.0122C94.5199 27.2496 94.8255 27.4395 95.2053 27.5819C95.5911 27.7303 96.0599 27.8045 96.6118 27.8045C97.4367 27.8045 98.1162 27.6027 98.6502 27.1992C99.1903 26.8016 99.4603 26.134 99.4603 25.1963V22.695H99.3001C99.1339 23.0748 98.8847 23.4338 98.5523 23.7721C98.22 24.1103 97.7927 24.3863 97.2705 24.5999C96.7483 24.8136 96.1252 24.9204 95.4012 24.9204C94.3745 24.9204 93.4399 24.683 92.5972 24.2083C91.7605 23.7276 91.0928 22.9947 90.5943 22.0096C90.1018 21.0185 89.8555 19.7664 89.8555 18.2531C89.8555 16.7043 90.1077 15.4106 90.6122 14.3721C91.1166 13.3335 91.7872 12.5561 92.6239 12.0398C93.4666 11.5236 94.3894 11.2654 95.3923 11.2654C96.1578 11.2654 96.7987 11.396 97.315 11.6571C97.8313 11.9123 98.2467 12.2327 98.5612 12.6184C98.8817 12.9982 99.128 13.3721 99.3001 13.74H99.4425V11.4434H103.208V25.2497C103.208 26.4129 102.923 27.3861 102.353 28.1694C101.784 28.9528 100.994 29.5403 99.9855 29.9319C98.9826 30.3295 97.8283 30.5283 96.5228 30.5283ZM96.6029 22.0719C97.2141 22.0719 97.7304 21.9206 98.1518 21.6179C98.579 21.3093 98.9054 20.8702 99.1309 20.3005C99.3624 19.7248 99.4781 19.0365 99.4781 18.2353C99.4781 17.4342 99.3653 16.7399 99.1398 16.1524C98.9143 15.5589 98.5879 15.099 98.1607 14.7726C97.7334 14.4462 97.2141 14.283 96.6029 14.283C95.9798 14.283 95.4546 14.4522 95.0273 14.7904C94.6 15.1227 94.2766 15.5856 94.057 16.1791C93.8375 16.7725 93.7277 17.4579 93.7277 18.2353C93.7277 19.0246 93.8375 19.707 94.057 20.2827C94.2826 20.8524 94.606 21.2945 95.0273 21.609C95.4546 21.9176 95.9798 22.0719 96.6029 22.0719ZM110.018 17.2116V25.1162H106.225V11.4434H109.839V13.8558H110C110.302 13.0606 110.81 12.4315 111.522 11.9686C112.234 11.4998 113.097 11.2654 114.112 11.2654C115.062 11.2654 115.89 11.4731 116.596 11.8885C117.302 12.3039 117.851 12.8974 118.243 13.6688C118.634 14.4344 118.83 15.3483 118.83 16.4105V25.1162H115.038V17.087C115.044 16.2503 114.83 15.5975 114.397 15.1287C113.964 14.6539 113.367 14.4166 112.608 14.4166C112.097 14.4166 111.646 14.5263 111.255 14.7459C110.869 14.9655 110.566 15.2859 110.347 15.7073C110.133 16.1227 110.023 16.6241 110.018 17.2116ZM121.819 25.1162V11.4434H125.495V13.8291H125.637C125.887 12.9804 126.305 12.3395 126.893 11.9063C127.48 11.4672 128.157 11.2476 128.922 11.2476C129.112 11.2476 129.317 11.2595 129.536 11.2832C129.756 11.307 129.949 11.3396 130.115 11.3811V14.7459C129.937 14.6925 129.691 14.645 129.376 14.6035C129.062 14.562 128.774 14.5412 128.513 14.5412C127.955 14.5412 127.456 14.6628 127.017 14.9061C126.584 15.1435 126.24 15.4758 125.985 15.9031C125.735 16.3304 125.611 16.8229 125.611 17.3808V25.1162H121.819Z" fill="black"/>
</svg>
