<svg width="56" height="56" viewBox="0 0 56 56" fill="none" xmlns="http://www.w3.org/2000/svg">
<path fill-rule="evenodd" clip-rule="evenodd" d="M27.2286 5.47015C27.5774 5.1961 42.1407 -6.13349 51.7664 5.02722C57.0507 11.1543 56.6027 17.511 54.6418 23.7361L47.7428 43.4989C45.7256 50.3702 44.2873 52.4914 40.753 55.4767C38.6551 57.2486 36.2891 54.1881 33.7992 50.9668C31.6421 48.1763 29.3919 45.2652 27.1421 45.272C24.8552 45.279 22.5689 48.1947 20.3814 50.9841C17.8584 54.2017 15.467 57.2513 13.3579 55.4767C9.0993 51.8931 7.2317 46.9415 5.27957 38.9951C4.90385 37.4652 4.33212 35.6303 3.70177 33.6068C1.05778 25.1202 -2.62014 13.3145 2.77434 6.76497C9.43582 -1.32267 17.71 -2.62464 27.1404 5.40522L27.2286 5.47015ZM22.5752 6.3007C19.3125 4.05877 16.5391 3.3457 14.2289 3.52747C11.3904 3.7506 8.44217 5.38894 5.47592 8.99027C3.24518 11.6986 3.01813 16.2739 4.22082 22.2514C4.7936 25.0981 5.62922 27.9811 6.4708 30.7193C6.65227 31.3101 6.83672 31.9021 7.0196 32.4888C7.65712 34.5347 8.27452 36.5157 8.6786 38.1601C10.4657 45.4351 12.0202 49.3449 14.84 52.0996C15.422 51.5583 16.1583 50.6888 17.1323 49.4545C17.284 49.262 17.4415 49.0609 17.6038 48.8537C18.6016 47.5799 19.7834 46.0709 20.989 44.8646C22.2696 43.5832 24.3866 41.7804 27.1316 41.772C29.8893 41.7636 32.0007 43.5956 33.2553 44.8681C34.4433 46.0733 35.6087 47.5827 36.5922 48.8565C36.753 49.0647 36.9089 49.2667 37.0592 49.4601C38.0133 50.6867 38.7361 51.5526 39.3076 52.0942C40.4413 51.0692 41.1765 50.2135 41.8126 49.1493C42.6339 47.7755 43.3988 45.8706 44.3845 42.5129C44.401 42.4566 44.419 42.4007 44.4384 42.3453L51.3193 22.6345C52.219 19.765 52.6759 17.1447 52.4374 14.6823C52.2051 12.2838 51.2953 9.84007 49.1159 7.31307C45.503 3.12387 41.0643 3.0605 36.8767 4.3582C34.7678 5.01165 32.875 5.985 31.4888 6.8173C30.9687 7.1295 30.5303 7.41562 30.1901 7.64767L36.9119 12.59C37.6905 13.1626 37.8576 14.2579 37.285 15.0365C36.7126 15.8153 35.6171 15.9824 34.8385 15.4098L25.3451 8.4294C25.2136 8.34575 25.0866 8.25264 24.965 8.14992L22.9383 6.6598C22.7967 6.55567 22.6754 6.4344 22.5752 6.3007ZM14.2263 52.5786L14.2331 52.5752C14.2284 52.5775 14.2263 52.5786 14.2263 52.5786Z" fill="#333333"/>
</svg>
