<svg width="18" height="16" viewBox="0 0 18 16" fill="none" xmlns="http://www.w3.org/2000/svg">
<path d="M17.9727 2.83361C17.5083 3.45313 16.9469 3.99354 16.3102 4.43397C16.3102 4.5958 16.3102 4.75763 16.3102 4.92846C16.3153 7.86731 15.1414 10.6853 13.0517 12.7507C10.9619 14.8161 8.13108 15.9561 5.19393 15.9151C3.49587 15.9208 1.81955 15.5331 0.2963 14.7823C0.21416 14.7464 0.16119 14.6652 0.1615 14.5755V14.4766C0.1615 14.3475 0.26611 14.2429 0.39515 14.2429C2.0643 14.1878 3.6739 13.6091 4.99622 12.5886C3.48541 12.5581 2.12607 11.6631 1.50048 10.2869C1.46889 10.2118 1.47872 10.1255 1.52645 10.0594C1.57417 9.99331 1.65288 9.95691 1.73413 9.96331C2.1933 10.0094 2.65706 9.96671 3.10008 9.83741C1.43227 9.49121 0.17909 8.10661 -0.000260003 6.41191C-0.00663 6.33061 0.0297999 6.25191 0.0958799 6.20411C0.16195 6.15641 0.24812 6.14651 0.32326 6.17821C0.77082 6.37571 1.25397 6.47971 1.74312 6.48381C0.28172 5.52467 -0.34951 3.70026 0.20643 2.04243C0.26382 1.88134 0.40169 1.76233 0.56938 1.72915C0.73706 1.69596 0.90984 1.75349 1.0242 1.8806C2.99627 3.97946 5.70592 5.23017 8.58178 5.369C8.50818 5.07506 8.47198 4.77297 8.47398 4.46993C8.50088 2.88093 9.48408 1.46542 10.9633 0.886083C12.4424 0.306753 14.1248 0.678243 15.2229 1.82665C15.9713 1.68406 16.6949 1.43266 17.3706 1.08042C17.4201 1.04952 17.4829 1.04952 17.5324 1.08042C17.5633 1.12994 17.5633 1.19273 17.5324 1.24225C17.2051 1.99173 16.6522 2.62033 15.9508 3.0404C16.565 2.96917 17.1684 2.82428 17.7481 2.60885C17.7969 2.57563 17.861 2.57563 17.9098 2.60885C17.9507 2.62755 17.9813 2.66332 17.9934 2.70663C18.0055 2.74994 17.9979 2.79639 17.9727 2.83361Z" fill="black"/>
</svg>
