<svg width="132" height="40" viewBox="0 0 132 40" fill="none" xmlns="http://www.w3.org/2000/svg">
<path d="M16.4926 8.5957V8.59675C16.4758 8.62583 12.9952 14.6297 8.65038 21.96C4.29503 29.3081 0.699707 35.1911 0.699707 35.1911L13.0312 35.137L13.032 35.1369L13.0294 35.1464C19.0169 35.0304 24.4179 31.0939 26.0117 25.1458C26.5099 23.2864 26.585 21.4147 26.2961 19.626C25.504 14.3587 21.6146 10.075 16.4926 8.5957Z" fill="black"/>
<path d="M23.3076 4.80957V4.81061C23.2907 4.83969 19.8101 10.8435 15.4653 18.1739C11.11 25.522 7.51465 31.4049 7.51465 31.4049L19.8461 31.3509L19.8469 31.3507L19.8444 31.3603C25.8319 31.2443 31.2328 27.3078 32.8266 21.3597C33.3248 19.5003 33.4 17.6286 33.111 15.8398C32.3189 10.5726 28.4296 6.28883 23.3076 4.80957Z" fill="#10F2C5"/>
<path d="M49.3478 29H42.8853V10.7696H49.4012C51.2349 10.7696 52.8134 11.1346 54.1368 11.8645C55.4602 12.5885 56.4779 13.63 57.19 14.989C57.9081 16.3479 58.2671 17.974 58.2671 19.867C58.2671 21.766 57.9081 23.398 57.19 24.7629C56.4779 26.1278 55.4542 27.1752 54.119 27.9051C52.7897 28.635 51.1993 29 49.3478 29ZM46.7396 25.6975H49.1875C50.3269 25.6975 51.2853 25.4958 52.0627 25.0922C52.8461 24.6828 53.4336 24.0507 53.8252 23.1962C54.2229 22.3357 54.4217 21.226 54.4217 19.867C54.4217 18.5199 54.2229 17.4191 53.8252 16.5645C53.4336 15.71 52.849 15.081 52.0716 14.6774C51.2942 14.2739 50.3358 14.0721 49.1964 14.0721H46.7396V25.6975ZM66.0893 29.2225C65.0508 29.2225 64.1102 28.9555 63.2676 28.4214C62.4308 27.8814 61.7662 27.0891 61.2736 26.0447C60.787 24.9943 60.5437 23.7066 60.5437 22.1814C60.5437 20.6147 60.7959 19.3122 61.3003 18.2736C61.8047 17.2292 62.4753 16.4488 63.3121 15.9325C64.1547 15.4103 65.0775 15.1492 66.0804 15.1492C66.846 15.1492 67.4839 15.2798 67.9943 15.5409C68.5106 15.796 68.926 16.1165 69.2405 16.5022C69.5609 16.882 69.8043 17.2559 69.9704 17.6238H70.0861V10.7696H73.8693V29H70.1306V26.8102H69.9704C69.7924 27.19 69.5402 27.5669 69.2138 27.9407C68.8933 28.3086 68.475 28.6143 67.9587 28.8576C67.4483 29.1009 66.8252 29.2225 66.0893 29.2225ZM67.2911 26.2049C67.9023 26.2049 68.4186 26.0388 68.8399 25.7064C69.2672 25.3682 69.5936 24.8964 69.8191 24.2911C70.0505 23.6858 70.1662 22.9766 70.1662 22.1636C70.1662 21.3506 70.0535 20.6444 69.828 20.0451C69.6025 19.4457 69.2761 18.9828 68.8488 18.6564C68.4215 18.33 67.9023 18.1668 67.2911 18.1668C66.6679 18.1668 66.1428 18.336 65.7155 18.6742C65.2882 19.0125 64.9648 19.4813 64.7452 20.0807C64.5256 20.68 64.4159 21.3743 64.4159 22.1636C64.4159 22.9588 64.5256 23.662 64.7452 24.2733C64.9707 24.8786 65.2941 25.3533 65.7155 25.6975C66.1428 26.0358 66.6679 26.2049 67.2911 26.2049ZM88.3632 19.2261L84.8916 19.4397C84.8323 19.143 84.7047 18.876 84.5089 18.6386C84.313 18.3953 84.0549 18.2024 83.7344 18.06C83.4199 17.9116 83.0431 17.8375 82.6039 17.8375C82.0164 17.8375 81.5209 17.9621 81.1174 18.2113C80.7138 18.4546 80.5121 18.781 80.5121 19.1905C80.5121 19.5169 80.6426 19.7928 80.9037 20.0183C81.1648 20.2439 81.6129 20.4248 82.2479 20.5613L84.7225 21.0598C86.0518 21.3328 87.0428 21.7719 87.6956 22.3773C88.3484 22.9826 88.6748 23.7778 88.6748 24.7629C88.6748 25.659 88.4107 26.4453 87.8825 27.1218C87.3603 27.7983 86.6423 28.3265 85.7284 28.7062C84.8204 29.0801 83.773 29.267 82.5861 29.267C80.7761 29.267 79.3341 28.8902 78.26 28.1366C77.1918 27.377 76.5657 26.3444 76.3818 25.0388L80.1115 24.843C80.2242 25.3949 80.4972 25.8162 80.9304 26.107C81.3636 26.3918 81.9185 26.5343 82.595 26.5343C83.2597 26.5343 83.7938 26.4067 84.1973 26.1515C84.6068 25.8904 84.8145 25.5551 84.8204 25.1456C84.8145 24.8014 84.6691 24.5196 84.3842 24.3C84.0994 24.0745 83.6602 23.9024 83.0668 23.7837L80.699 23.3119C79.3638 23.0449 78.3698 22.582 77.717 21.9233C77.0701 21.2646 76.7467 20.4248 76.7467 19.4041C76.7467 18.5259 76.9841 17.7692 77.4588 17.1342C77.9395 16.4993 78.6131 16.0097 79.4795 15.6655C80.3518 15.3213 81.3725 15.1492 82.5416 15.1492C84.2685 15.1492 85.6275 15.5142 86.6185 16.2441C87.6155 16.974 88.1971 17.968 88.3632 19.2261ZM97.2225 34.4121C95.9941 34.4121 94.9407 34.243 94.0624 33.9047C93.1901 33.5724 92.4958 33.1184 91.9795 32.5428C91.4632 31.9672 91.1279 31.3203 90.9736 30.6023L94.4808 30.1305C94.5876 30.4035 94.7568 30.6587 94.9882 30.896C95.2196 31.1334 95.5253 31.3233 95.9051 31.4657C96.2908 31.6141 96.7596 31.6883 97.3115 31.6883C98.1364 31.6883 98.8159 31.4865 99.35 31.083C99.89 30.6854 100.16 30.0177 100.16 29.0801V26.5788H99.9998C99.8336 26.9586 99.5844 27.3176 99.252 27.6559C98.9197 27.9941 98.4924 28.2701 97.9702 28.4837C97.448 28.6973 96.8249 28.8042 96.1009 28.8042C95.0742 28.8042 94.1396 28.5668 93.2969 28.092C92.4602 27.6114 91.7925 26.8785 91.2941 25.8934C90.8015 24.9023 90.5552 23.6502 90.5552 22.1369C90.5552 20.588 90.8074 19.2944 91.3119 18.2558C91.8163 17.2173 92.4869 16.4399 93.3236 15.9236C94.1663 15.4073 95.0891 15.1492 96.092 15.1492C96.8575 15.1492 97.4984 15.2798 98.0147 15.5409C98.531 15.796 98.9464 16.1165 99.2609 16.5022C99.5814 16.882 99.8277 17.2559 99.9998 17.6238H100.142V15.3272H103.908V29.1335C103.908 30.2967 103.623 31.2699 103.053 32.0532C102.483 32.8366 101.694 33.4241 100.685 33.8157C99.6823 34.2133 98.528 34.4121 97.2225 34.4121ZM97.3026 25.9557C97.9138 25.9557 98.4301 25.8043 98.8515 25.5017C99.2787 25.1931 99.6051 24.754 99.8306 24.1843C100.062 23.6086 100.178 22.9202 100.178 22.1191C100.178 21.318 100.065 20.6237 99.8395 20.0361C99.614 19.4427 99.2876 18.9828 98.8604 18.6564C98.4331 18.33 97.9138 18.1668 97.3026 18.1668C96.6795 18.1668 96.1543 18.336 95.727 18.6742C95.2997 19.0065 94.9763 19.4694 94.7568 20.0629C94.5372 20.6563 94.4274 21.3417 94.4274 22.1191C94.4274 22.9084 94.5372 23.5908 94.7568 24.1665C94.9823 24.7362 95.3057 25.1783 95.727 25.4928C96.1543 25.8014 96.6795 25.9557 97.3026 25.9557ZM110.717 21.0954V29H106.925V15.3272H110.539V17.7396H110.699C111.002 16.9443 111.509 16.3153 112.222 15.8524C112.934 15.3836 113.797 15.1492 114.812 15.1492C115.761 15.1492 116.589 15.3569 117.295 15.7723C118.002 16.1877 118.551 16.7812 118.942 17.5526C119.334 18.3182 119.53 19.232 119.53 20.2943V29H115.738V20.9708C115.744 20.1341 115.53 19.4813 115.097 19.0125C114.664 18.5377 114.067 18.3003 113.308 18.3003C112.797 18.3003 112.346 18.4101 111.955 18.6297C111.569 18.8493 111.266 19.1697 111.047 19.5911C110.833 20.0065 110.723 20.5079 110.717 21.0954ZM122.518 29V15.3272H126.195V17.7128H126.337C126.586 16.8642 127.005 16.2233 127.592 15.7901C128.18 15.351 128.856 15.1314 129.622 15.1314C129.812 15.1314 130.016 15.1433 130.236 15.167C130.456 15.1907 130.649 15.2234 130.815 15.2649V18.6297C130.637 18.5763 130.39 18.5288 130.076 18.4873C129.761 18.4457 129.474 18.425 129.212 18.425C128.655 18.425 128.156 18.5466 127.717 18.7899C127.284 19.0273 126.94 19.3596 126.684 19.7869C126.435 20.2142 126.31 20.7067 126.31 21.2646V29H122.518Z" fill="black"/>
</svg>
